<svg xmlns="http://www.w3.org/2000/svg" viewBox="0 0 800 800" fill="#D9A600">
  <!-- Sun rays -->
  <path d="M400 30 L410 80 L390 80 Z"/>
  <path d="M520 60 L510 110 L495 100 Z"/>
  <path d="M280 60 L290 110 L305 100 Z"/>
  <path d="M580 140 L560 180 L540 175 Z"/>
  <path d="M220 140 L240 180 L260 175 Z"/>
  <path d="M620 240 L590 270 L575 260 Z"/>
  <path d="M180 240 L210 270 L225 260 Z"/>
  
  <!-- Stars -->
  <path d="M170 120 L175 135 L190 135 L177 145 L182 160 L170 150 L158 160 L163 145 L150 135 L165 135 Z"/>
  <path d="M630 120 L635 135 L650 135 L637 145 L642 160 L630 150 L618 160 L623 145 L610 135 L625 135 Z"/>
  
  <!-- Angel figure with wings (simplified representation) -->
  <ellipse cx="400" cy="250" rx="35" ry="45"/>
  <path d="M400 295 Q380 320 375 380 L425 380 Q420 320 400 295"/>
  <path d="M375 380 Q360 450 365 520 Q380 540 400 540 Q420 540 435 520 Q440 450 425 380"/>
  
  <!-- Wings -->
  <path d="M365 340 Q280 320 220 350 Q180 380 170 430 Q165 480 190 520 Q220 560 270 570 Q320 575 365 550 Q350 500 350 450 Q355 400 365 340"/>
  <path d="M435 340 Q520 320 580 350 Q620 380 630 430 Q635 480 610 520 Q580 560 530 570 Q480 575 435 550 Q450 500 450 450 Q445 400 435 340"/>
  
  <!-- Hair flowing -->
  <path d="M365 250 Q350 240 340 245 Q335 255 340 265 Q350 270 365 265"/>
  <path d="M435 250 Q450 240 460 245 Q465 255 460 265 Q450 270 435 265"/>
  <path d="M380 230 Q365 220 355 225 Q350 235 360 245 Q375 250 380 240"/>
  <path d="M420 230 Q435 220 445 225 Q450 235 440 245 Q425 250 420 240"/>
  
  <!-- Sun/orb in hands -->
  <circle cx="400" cy="420" r="35"/>
  <path d="M400 385 L400 395 M400 445 L400 455 M365 420 L375 420 M425 420 L435 420"/>
  <path d="M380 400 L385 405 M415 405 L420 400 M420 440 L415 435 M385 435 L380 440"/>
  
  <!-- Base arc -->
  <path d="M200 650 Q400 700 600 650" stroke="#D9A600" stroke-width="8" fill="none"/>
</svg>
