<svg width="8861" height="1734" viewBox="0 0 8861 1734" fill="none" xmlns="http://www.w3.org/2000/svg">
<g clip-path="url(#clip0_216_12)">
<rect x="0.398438" width="1742.2" height="1734" rx="866.999" fill="#1F2937"/>
<path d="M486.658 2076.44L252.334 2076.44L252.334 -0.213644L486.658 -0.213623L486.658 2076.44Z" fill="#D1D5DB"/>
<path d="M919.244 2076.44L684.92 2076.44L684.92 -0.21169L919.244 -0.21167L919.244 2076.44Z" fill="#D1D5DB"/>
<path d="M1693.68 58.4414L1810.84 261.372L12.4126 1299.7L-104.749 1096.77L1693.68 58.4414Z" fill="#D1D5DB"/>
<path d="M1693.68 126.744L1810.85 329.675L12.4146 1368L-104.747 1165.07L1693.68 126.744Z" fill="white"/>
<path d="M555.191 2076.44L320.867 2076.44L320.868 -0.213644L555.192 -0.213623L555.191 2076.44Z" fill="white"/>
<path d="M988.672 1986.93L754.348 1986.93L754.348 -89.7215L988.672 -89.7214L988.672 1986.93Z" fill="white"/>
</g>
<mask id="path-8-outside-1_216_12" maskUnits="userSpaceOnUse" x="2152.6" y="139" width="6664" height="768" fill="black">
<rect fill="white" x="2152.6" y="139" width="6664" height="768"/>
<path d="M2154.09 894V151.824H2336.46V437.032H2641.81V151.824H2824.17V894H2641.81V603.491H2336.46V894H2154.09ZM3074.44 894V151.824H3659.7V309.802H3256.8V443.393H3522.93V596.069H3256.8V736.023H3663.94V894H3074.44ZM3839.93 894L4144.22 151.824H4353.09L4653.15 894H4455.94L4388.08 714.818H4098.63L4029.72 894H3839.93ZM4153.77 569.563H4334.01L4244.95 332.067L4153.77 569.563ZM4938.15 894L4638.1 151.824H4835.31L5046.3 704.215L5261.53 151.824H5451.32L5147.02 894H4938.15ZM5632.54 894V151.824H5814.91V894H5632.54ZM6338.76 904.603C6278.68 904.603 6219.31 893.647 6160.64 871.735C6101.97 849.823 6049.67 819.429 6003.72 780.553L6105.51 648.022C6150.74 684.777 6192.45 711.283 6230.62 727.541C6268.79 743.091 6309.43 750.866 6352.55 750.866C6380.82 750.866 6404.85 748.039 6424.64 742.384C6444.43 736.729 6459.63 728.601 6470.23 717.998C6480.84 706.689 6486.14 693.613 6486.14 678.769C6486.14 658.271 6478.36 642.367 6462.81 631.058C6447.26 619.748 6420.75 610.913 6383.29 604.551L6220.01 575.925C6159.93 565.322 6113.64 542.35 6081.12 507.008C6048.61 471.667 6032.35 426.783 6032.35 372.357C6032.35 324.292 6044.37 282.942 6068.4 248.307C6093.14 213.672 6128.13 187.166 6173.36 168.788C6219.31 150.411 6273.73 141.222 6336.64 141.222C6391.77 141.222 6447.26 150.764 6503.1 169.849C6558.94 188.226 6607.36 214.026 6648.36 247.247L6551.87 381.899C6475.53 323.232 6399.55 293.898 6323.92 293.898C6299.18 293.898 6277.62 296.725 6259.24 302.38C6241.57 307.328 6227.79 314.75 6217.89 324.645C6208.7 333.834 6204.11 345.143 6204.11 358.573C6204.11 376.951 6210.83 391.088 6224.25 400.983C6238.39 410.879 6261.01 418.654 6292.11 424.309L6445.85 449.755C6517.24 461.064 6571.31 484.743 6608.07 520.792C6645.53 556.84 6664.26 603.491 6664.26 660.745C6664.26 710.93 6651.18 754.4 6625.03 791.156C6598.88 827.204 6561.41 855.124 6512.64 874.915C6463.87 894.707 6405.91 904.603 6338.76 904.603ZM6874.78 894V151.824H7057.14V894H6874.78ZM7489.81 732.842H7604.32C7633.3 732.842 7660.16 727.541 7684.9 716.938C7710.35 706.336 7732.61 691.492 7751.7 672.408C7770.78 653.323 7785.62 631.411 7796.23 606.672C7806.83 581.226 7812.13 554.013 7812.13 525.033C7812.13 495.346 7806.83 467.779 7796.23 442.333C7785.62 416.18 7770.78 393.562 7751.7 374.477C7732.61 355.392 7710.35 340.549 7684.9 329.946C7660.16 318.637 7633.3 312.982 7604.32 312.982H7489.81V732.842ZM7307.45 894V151.824H7608.56C7663.69 151.824 7714.94 161.367 7762.3 180.451C7809.66 199.536 7851.01 226.042 7886.35 259.97C7922.4 293.898 7950.32 333.481 7970.11 378.718C7990.61 423.955 8000.85 472.727 8000.85 525.033C8000.85 576.632 7990.61 624.696 7970.11 669.227C7950.32 713.757 7922.4 752.987 7886.35 786.915C7851.01 820.136 7809.66 846.289 7762.3 865.373C7714.94 884.458 7663.69 894 7608.56 894H7307.45ZM8224.69 894V151.824H8809.95V309.802H8407.05V443.393H8673.18V596.069H8407.05V736.023H8814.19V894H8224.69Z"/>
</mask>
<path d="M2154.09 894V151.824H2336.46V437.032H2641.81V151.824H2824.17V894H2641.81V603.491H2336.46V894H2154.09ZM3074.44 894V151.824H3659.7V309.802H3256.8V443.393H3522.93V596.069H3256.8V736.023H3663.94V894H3074.44ZM3839.93 894L4144.22 151.824H4353.09L4653.15 894H4455.94L4388.08 714.818H4098.63L4029.72 894H3839.93ZM4153.77 569.563H4334.01L4244.95 332.067L4153.77 569.563ZM4938.15 894L4638.1 151.824H4835.31L5046.3 704.215L5261.53 151.824H5451.32L5147.02 894H4938.15ZM5632.54 894V151.824H5814.91V894H5632.54ZM6338.76 904.603C6278.68 904.603 6219.31 893.647 6160.64 871.735C6101.97 849.823 6049.67 819.429 6003.72 780.553L6105.51 648.022C6150.74 684.777 6192.45 711.283 6230.62 727.541C6268.79 743.091 6309.43 750.866 6352.55 750.866C6380.82 750.866 6404.85 748.039 6424.64 742.384C6444.43 736.729 6459.63 728.601 6470.23 717.998C6480.84 706.689 6486.14 693.613 6486.14 678.769C6486.14 658.271 6478.36 642.367 6462.81 631.058C6447.26 619.748 6420.75 610.913 6383.29 604.551L6220.01 575.925C6159.93 565.322 6113.64 542.35 6081.12 507.008C6048.61 471.667 6032.35 426.783 6032.35 372.357C6032.35 324.292 6044.37 282.942 6068.4 248.307C6093.14 213.672 6128.13 187.166 6173.36 168.788C6219.31 150.411 6273.73 141.222 6336.64 141.222C6391.77 141.222 6447.26 150.764 6503.1 169.849C6558.94 188.226 6607.36 214.026 6648.36 247.247L6551.87 381.899C6475.53 323.232 6399.55 293.898 6323.92 293.898C6299.18 293.898 6277.62 296.725 6259.24 302.38C6241.57 307.328 6227.79 314.75 6217.89 324.645C6208.7 333.834 6204.11 345.143 6204.11 358.573C6204.11 376.951 6210.83 391.088 6224.25 400.983C6238.39 410.879 6261.01 418.654 6292.11 424.309L6445.85 449.755C6517.24 461.064 6571.31 484.743 6608.07 520.792C6645.53 556.84 6664.26 603.491 6664.26 660.745C6664.26 710.93 6651.18 754.4 6625.03 791.156C6598.88 827.204 6561.41 855.124 6512.64 874.915C6463.87 894.707 6405.91 904.603 6338.76 904.603ZM6874.78 894V151.824H7057.14V894H6874.78ZM7489.81 732.842H7604.32C7633.3 732.842 7660.16 727.541 7684.9 716.938C7710.35 706.336 7732.61 691.492 7751.7 672.408C7770.78 653.323 7785.62 631.411 7796.23 606.672C7806.83 581.226 7812.13 554.013 7812.13 525.033C7812.13 495.346 7806.83 467.779 7796.23 442.333C7785.62 416.18 7770.78 393.562 7751.7 374.477C7732.61 355.392 7710.35 340.549 7684.9 329.946C7660.16 318.637 7633.3 312.982 7604.32 312.982H7489.81V732.842ZM7307.45 894V151.824H7608.56C7663.69 151.824 7714.94 161.367 7762.3 180.451C7809.66 199.536 7851.01 226.042 7886.35 259.97C7922.4 293.898 7950.32 333.481 7970.11 378.718C7990.61 423.955 8000.85 472.727 8000.85 525.033C8000.85 576.632 7990.61 624.696 7970.11 669.227C7950.32 713.757 7922.4 752.987 7886.35 786.915C7851.01 820.136 7809.66 846.289 7762.3 865.373C7714.94 884.458 7663.69 894 7608.56 894H7307.45ZM8224.69 894V151.824H8809.95V309.802H8407.05V443.393H8673.18V596.069H8407.05V736.023H8814.19V894H8224.69Z" fill="#E5E7EB"/>
<path d="M2154.09 894H2152.68V895.414H2154.09V894ZM2154.09 151.824V150.411H2152.68V151.824H2154.09ZM2336.46 151.824H2337.87V150.411H2336.46V151.824ZM2336.46 437.032H2335.04V438.445H2336.46V437.032ZM2641.81 437.032V438.445H2643.22V437.032H2641.81ZM2641.81 151.824V150.411H2640.39V151.824H2641.81ZM2824.17 151.824H2825.58V150.411H2824.17V151.824ZM2824.17 894V895.414H2825.58V894H2824.17ZM2641.81 894H2640.39V895.414H2641.81V894ZM2641.81 603.491H2643.22V602.078H2641.81V603.491ZM2336.46 603.491V602.078H2335.04V603.491H2336.46ZM2336.46 894V895.414H2337.87V894H2336.46ZM2155.51 894V151.824H2152.68V894H2155.51ZM2154.09 153.238H2336.46V150.411H2154.09V153.238ZM2335.04 151.824V437.032H2337.87V151.824H2335.04ZM2336.46 438.445H2641.81V435.618H2336.46V438.445ZM2643.22 437.032V151.824H2640.39V437.032H2643.22ZM2641.81 153.238H2824.17V150.411H2641.81V153.238ZM2822.76 151.824V894H2825.58V151.824H2822.76ZM2824.17 892.586H2641.81V895.414H2824.17V892.586ZM2643.22 894V603.491H2640.39V894H2643.22ZM2641.81 602.078H2336.46V604.905H2641.81V602.078ZM2335.04 603.491V894H2337.87V603.491H2335.04ZM2336.46 892.586H2154.09V895.414H2336.46V892.586ZM3074.44 894H3073.03V895.414H3074.44V894ZM3074.44 151.824V150.411H3073.03V151.824H3074.44ZM3659.7 151.824H3661.11V150.411H3659.7V151.824ZM3659.7 309.802V311.215H3661.11V309.802H3659.7ZM3256.8 309.802V308.388H3255.39V309.802H3256.8ZM3256.8 443.393H3255.39V444.807H3256.8V443.393ZM3522.93 443.393H3524.34V441.98H3522.93V443.393ZM3522.93 596.069V597.483H3524.34V596.069H3522.93ZM3256.8 596.069V594.656H3255.39V596.069H3256.8ZM3256.8 736.023H3255.39V737.436H3256.8V736.023ZM3663.94 736.023H3665.35V734.609H3663.94V736.023ZM3663.94 894V895.414H3665.35V894H3663.94ZM3075.85 894V151.824H3073.03V894H3075.85ZM3074.44 153.238H3659.7V150.411H3074.44V153.238ZM3658.28 151.824V309.802H3661.11V151.824H3658.28ZM3659.7 308.388H3256.8V311.215H3659.7V308.388ZM3255.39 309.802V443.393H3258.22V309.802H3255.39ZM3256.8 444.807H3522.93V441.98H3256.8V444.807ZM3521.51 443.393V596.069H3524.34V443.393H3521.51ZM3522.93 594.656H3256.8V597.483H3522.93V594.656ZM3255.39 596.069V736.023H3258.22V596.069H3255.39ZM3256.8 737.436H3663.94V734.609H3256.8V737.436ZM3662.53 736.023V894H3665.35V736.023H3662.53ZM3663.94 892.586H3074.44V895.414H3663.94V892.586ZM3839.93 894L3838.62 893.464L3837.83 895.414H3839.93V894ZM4144.22 151.824V150.411H4143.28L4142.92 151.288L4144.22 151.824ZM4353.09 151.824L4354.4 151.294L4354.05 150.411H4353.09V151.824ZM4653.15 894V895.414H4655.24L4654.46 893.47L4653.15 894ZM4455.94 894L4454.62 894.501L4454.96 895.414H4455.94V894ZM4388.08 714.818L4389.4 714.317L4389.06 713.404H4388.08V714.818ZM4098.63 714.818V713.404H4097.66L4097.31 714.31L4098.63 714.818ZM4029.72 894V895.414H4030.69L4031.04 894.508L4029.72 894ZM4153.77 569.563L4152.45 569.056L4151.71 570.977H4153.77V569.563ZM4334.01 569.563V570.977H4336.05L4335.33 569.067L4334.01 569.563ZM4244.95 332.067L4246.27 331.571L4244.96 328.082L4243.63 331.56L4244.95 332.067ZM3841.24 894.536L4145.53 152.361L4142.92 151.288L3838.62 893.464L3841.24 894.536ZM4144.22 153.238H4353.09V150.411H4144.22V153.238ZM4351.78 152.354L4651.83 894.53L4654.46 893.47L4354.4 151.294L4351.78 152.354ZM4653.15 892.586H4455.94V895.414H4653.15V892.586ZM4457.26 893.499L4389.4 714.317L4386.76 715.318L4454.62 894.501L4457.26 893.499ZM4388.08 713.404H4098.63V716.231H4388.08V713.404ZM4097.31 714.31L4028.4 893.492L4031.04 894.508L4099.95 715.325L4097.31 714.31ZM4029.72 892.586H3839.93V895.414H4029.72V892.586ZM4153.77 570.977H4334.01V568.15H4153.77V570.977ZM4335.33 569.067L4246.27 331.571L4243.62 332.563L4332.69 570.06L4335.33 569.067ZM4243.63 331.56L4152.45 569.056L4155.09 570.07L4246.27 332.574L4243.63 331.56ZM4938.15 894L4936.84 894.53L4937.2 895.414H4938.15V894ZM4638.1 151.824V150.411H4636.01L4636.79 152.354L4638.1 151.824ZM4835.31 151.824L4836.63 151.32L4836.28 150.411H4835.31V151.824ZM5046.3 704.215L5044.98 704.719L5046.29 708.143L5047.62 704.728L5046.3 704.215ZM5261.53 151.824V150.411H5260.56L5260.21 151.311L5261.53 151.824ZM5451.32 151.824L5452.62 152.361L5453.42 150.411H5451.32V151.824ZM5147.02 894V895.414H5147.97L5148.33 894.536L5147.02 894ZM4939.46 893.47L4639.41 151.294L4636.79 152.354L4936.84 894.53L4939.46 893.47ZM4638.1 153.238H4835.31V150.411H4638.1V153.238ZM4833.99 152.329L5044.98 704.719L5047.62 703.711L4836.63 151.32L4833.99 152.329ZM5047.62 704.728L5262.85 152.337L5260.21 151.311L5044.98 703.702L5047.62 704.728ZM5261.53 153.238H5451.32V150.411H5261.53V153.238ZM5450.01 151.288L5145.72 893.464L5148.33 894.536L5452.62 152.361L5450.01 151.288ZM5147.02 892.586H4938.15V895.414H5147.02V892.586ZM5632.54 894H5631.13V895.414H5632.54V894ZM5632.54 151.824V150.411H5631.13V151.824H5632.54ZM5814.91 151.824H5816.32V150.411H5814.91V151.824ZM5814.91 894V895.414H5816.32V894H5814.91ZM5633.96 894V151.824H5631.13V894H5633.96ZM5632.54 153.238H5814.91V150.411H5632.54V153.238ZM5813.49 151.824V894H5816.32V151.824H5813.49ZM5814.91 892.586H5632.54V895.414H5814.91V892.586ZM6160.64 871.735L6161.13 870.41L6160.64 871.735ZM6003.72 780.553L6002.6 779.692L6001.78 780.761L6002.81 781.632L6003.72 780.553ZM6105.51 648.022L6106.4 646.925L6105.27 646.008L6104.39 647.161L6105.51 648.022ZM6230.62 727.541L6230.06 728.841L6230.07 728.846L6230.08 728.85L6230.62 727.541ZM6470.23 717.998L6471.23 718.998L6471.25 718.982L6471.26 718.965L6470.23 717.998ZM6462.81 631.058L6463.64 629.914L6462.81 631.058ZM6383.29 604.551L6383.05 605.944L6383.06 605.945L6383.29 604.551ZM6220.01 575.925L6219.77 577.317L6219.77 577.317L6220.01 575.925ZM6081.12 507.008L6080.08 507.966L6081.12 507.008ZM6068.4 248.307L6067.25 247.485L6067.24 247.493L6067.24 247.501L6068.4 248.307ZM6173.36 168.788L6172.84 167.476L6172.83 167.479L6173.36 168.788ZM6503.1 169.849L6502.64 171.186L6502.65 171.189L6502.66 171.191L6503.1 169.849ZM6648.36 247.247L6649.5 248.07L6650.28 246.987L6649.25 246.149L6648.36 247.247ZM6551.87 381.899L6551.01 383.02L6552.17 383.91L6553.02 382.722L6551.87 381.899ZM6259.24 302.38L6259.62 303.741L6259.64 303.736L6259.66 303.731L6259.24 302.38ZM6217.89 324.645L6218.89 325.645L6217.89 324.645ZM6224.25 400.983L6223.42 402.121L6223.43 402.132L6223.44 402.141L6224.25 400.983ZM6292.11 424.309L6291.86 425.7L6291.87 425.702L6291.88 425.703L6292.11 424.309ZM6445.85 449.755L6445.62 451.15L6445.63 451.151L6445.85 449.755ZM6608.07 520.792L6607.08 521.801L6607.09 521.81L6608.07 520.792ZM6625.03 791.156L6626.17 791.986L6626.18 791.975L6625.03 791.156ZM6512.64 874.915L6513.17 876.225L6512.64 874.915ZM6338.76 903.189C6278.86 903.189 6219.65 892.266 6161.13 870.41L6160.15 873.059C6218.96 895.027 6278.5 906.016 6338.76 906.016V903.189ZM6161.13 870.41C6102.61 848.553 6050.45 818.24 6004.64 779.474L6002.81 781.632C6048.88 820.618 6101.33 851.093 6160.15 873.059L6161.13 870.41ZM6004.84 781.414L6106.63 648.883L6104.39 647.161L6002.6 779.692L6004.84 781.414ZM6104.62 649.119C6149.92 685.927 6191.73 712.516 6230.06 728.841L6231.17 726.24C6193.16 710.051 6151.57 683.628 6106.4 646.925L6104.62 649.119ZM6230.08 728.85C6268.43 744.472 6309.25 752.28 6352.55 752.28V749.452C6309.6 749.452 6269.14 741.71 6231.15 726.231L6230.08 728.85ZM6352.55 752.28C6380.9 752.28 6405.08 749.445 6425.03 743.743L6424.25 741.025C6404.63 746.633 6380.73 749.452 6352.55 749.452V752.28ZM6425.03 743.743C6444.97 738.046 6460.41 729.822 6471.23 718.998L6469.23 716.999C6458.85 727.38 6443.9 735.413 6424.25 741.025L6425.03 743.743ZM6471.26 718.965C6482.1 707.407 6487.55 693.989 6487.55 678.769H6484.72C6484.72 693.236 6479.57 705.971 6469.2 717.031L6471.26 718.965ZM6487.55 678.769C6487.55 657.854 6479.59 641.51 6463.64 629.914L6461.98 632.201C6477.14 643.224 6484.72 658.688 6484.72 678.769H6487.55ZM6463.64 629.914C6447.82 618.404 6421.04 609.527 6383.53 603.158L6383.06 605.945C6420.47 612.299 6446.71 621.093 6461.98 632.201L6463.64 629.914ZM6383.54 603.159L6220.26 574.532L6219.77 577.317L6383.05 605.944L6383.54 603.159ZM6220.26 574.533C6160.4 563.969 6114.41 541.109 6082.16 506.051L6080.08 507.966C6112.86 543.591 6159.47 566.675 6219.77 577.317L6220.26 574.533ZM6082.16 506.051C6049.92 471.006 6033.76 426.479 6033.76 372.357H6030.94C6030.94 427.086 6047.29 472.328 6080.08 507.966L6082.16 506.051ZM6033.76 372.357C6033.76 324.538 6045.71 283.479 6069.56 249.113L6067.24 247.501C6043.02 282.405 6030.94 324.046 6030.94 372.357H6033.76ZM6069.55 249.129C6094.11 214.743 6128.87 188.39 6173.89 170.098L6172.83 167.479C6127.38 185.942 6092.16 212.602 6067.25 247.485L6069.55 249.129ZM6173.89 170.101C6219.63 151.805 6273.87 142.635 6336.64 142.635V139.808C6273.6 139.808 6218.99 149.016 6172.84 167.476L6173.89 170.101ZM6336.64 142.635C6391.61 142.635 6446.94 152.148 6502.64 171.186L6503.56 168.511C6447.58 149.38 6391.94 139.808 6336.64 139.808V142.635ZM6502.66 171.191C6558.35 189.522 6606.62 215.244 6647.47 248.345L6649.25 246.149C6608.1 212.808 6559.53 186.931 6503.54 168.506L6502.66 171.191ZM6647.21 246.424L6550.72 381.075L6553.02 382.722L6649.5 248.07L6647.21 246.424ZM6552.73 380.778C6476.22 321.973 6399.94 292.484 6323.92 292.484V295.312C6399.16 295.312 6474.85 324.49 6551.01 383.02L6552.73 380.778ZM6323.92 292.484C6299.08 292.484 6277.37 295.323 6258.83 301.029L6259.66 303.731C6277.87 298.128 6299.28 295.312 6323.92 295.312V292.484ZM6258.86 301.019C6241.03 306.012 6227.01 313.533 6216.89 323.646L6218.89 325.645C6228.57 315.966 6242.12 308.643 6259.62 303.741L6258.86 301.019ZM6216.89 323.646C6207.43 333.109 6202.7 344.782 6202.7 358.573H6205.52C6205.52 345.504 6209.98 334.559 6218.89 325.645L6216.89 323.646ZM6202.7 358.573C6202.7 377.347 6209.58 391.929 6223.42 402.121L6225.09 399.845C6212.07 390.246 6205.52 376.555 6205.52 358.573H6202.7ZM6223.44 402.141C6237.83 412.215 6260.7 420.034 6291.86 425.7L6292.36 422.918C6261.32 417.274 6238.95 409.543 6225.07 399.825L6223.44 402.141ZM6291.88 425.703L6445.62 451.15L6446.08 448.36L6292.34 422.914L6291.88 425.703ZM6445.63 451.151C6516.84 462.432 6570.6 486.026 6607.08 521.801L6609.06 519.782C6572.02 483.46 6517.64 459.696 6446.07 448.359L6445.63 451.151ZM6607.09 521.81C6644.24 557.564 6662.85 603.833 6662.85 660.745H6665.67C6665.67 603.15 6646.81 556.116 6609.05 519.773L6607.09 521.81ZM6662.85 660.745C6662.85 710.671 6649.84 753.847 6623.88 790.336L6626.18 791.975C6652.52 754.954 6665.67 711.189 6665.67 660.745H6662.85ZM6623.89 790.326C6597.91 826.124 6560.68 853.895 6512.11 873.606L6513.17 876.225C6562.15 856.353 6599.84 828.285 6626.17 791.986L6623.89 790.326ZM6512.11 873.606C6463.55 893.312 6405.78 903.189 6338.76 903.189V906.016C6406.05 906.016 6464.19 896.101 6513.17 876.225L6512.11 873.606ZM6874.78 894H6873.36V895.414H6874.78V894ZM6874.78 151.824V150.411H6873.36V151.824H6874.78ZM7057.14 151.824H7058.55V150.411H7057.14V151.824ZM7057.14 894V895.414H7058.55V894H7057.14ZM6876.19 894V151.824H6873.36V894H6876.19ZM6874.78 153.238H7057.14V150.411H6874.78V153.238ZM7055.73 151.824V894H7058.55V151.824H7055.73ZM7057.14 892.586H6874.78V895.414H7057.14V892.586ZM7489.81 732.842H7488.4V734.255H7489.81V732.842ZM7684.9 716.938L7684.36 715.633L7684.35 715.636L7684.34 715.639L7684.9 716.938ZM7751.7 672.408L7752.69 673.407L7751.7 672.408ZM7796.23 606.672L7797.53 607.229L7797.53 607.222L7797.53 607.216L7796.23 606.672ZM7796.23 442.333L7794.92 442.864L7794.92 442.877L7796.23 442.333ZM7684.9 329.946L7684.31 331.232L7684.33 331.242L7684.36 331.251L7684.9 329.946ZM7489.81 312.982V311.569H7488.4V312.982H7489.81ZM7307.45 894H7306.04V895.414H7307.45V894ZM7307.45 151.824V150.411H7306.04V151.824H7307.45ZM7886.35 259.97L7885.37 260.99L7885.38 260.999L7886.35 259.97ZM7970.11 378.718L7968.81 379.285L7968.82 379.293L7968.82 379.301L7970.11 378.718ZM7970.11 669.227L7968.82 668.636L7968.82 668.644L7968.82 668.653L7970.11 669.227ZM7886.35 786.915L7887.32 787.945L7887.32 787.944L7886.35 786.915ZM7489.81 734.255H7604.32V731.428H7489.81V734.255ZM7604.32 734.255C7633.48 734.255 7660.53 728.921 7685.46 718.237L7684.34 715.639C7659.79 726.16 7633.12 731.428 7604.32 731.428V734.255ZM7685.44 718.243C7711.06 707.571 7733.48 692.625 7752.69 673.407L7750.7 671.408C7731.74 690.359 7709.64 705.1 7684.36 715.633L7685.44 718.243ZM7752.69 673.407C7771.91 654.196 7786.85 632.134 7797.53 607.229L7794.93 606.115C7784.4 630.689 7769.65 652.45 7750.7 671.408L7752.69 673.407ZM7797.53 607.216C7808.21 581.589 7813.54 554.19 7813.54 525.033H7810.72C7810.72 553.836 7805.45 580.863 7794.92 606.128L7797.53 607.216ZM7813.54 525.033C7813.54 495.173 7808.21 467.421 7797.53 441.789L7794.92 442.877C7805.45 468.138 7810.72 495.518 7810.72 525.033H7813.54ZM7797.54 441.802C7786.87 415.482 7771.92 392.702 7752.69 373.477L7750.7 375.477C7769.64 394.421 7784.38 416.879 7794.92 442.864L7797.54 441.802ZM7752.69 373.477C7733.48 354.259 7711.06 339.314 7685.44 328.642L7684.36 331.251C7709.64 341.784 7731.74 356.525 7750.7 375.477L7752.69 373.477ZM7685.49 328.661C7660.55 317.262 7633.49 311.569 7604.32 311.569V314.396C7633.11 314.396 7659.77 320.013 7684.31 331.232L7685.49 328.661ZM7604.32 311.569H7489.81V314.396H7604.32V311.569ZM7488.4 312.982V732.842H7491.23V312.982H7488.4ZM7308.86 894V151.824H7306.04V894H7308.86ZM7307.45 153.238H7608.56V150.411H7307.45V153.238ZM7608.56 153.238C7663.53 153.238 7714.59 162.751 7761.77 181.762L7762.83 179.14C7715.29 159.982 7663.86 150.411 7608.56 150.411V153.238ZM7761.77 181.762C7808.97 200.782 7850.16 227.192 7885.37 260.99L7887.33 258.95C7851.85 224.892 7810.34 198.289 7762.83 179.14L7761.77 181.762ZM7885.38 260.999C7921.29 294.797 7949.1 334.222 7968.81 379.285L7971.4 378.151C7951.53 332.739 7923.5 292.999 7887.32 258.94L7885.38 260.999ZM7968.82 379.301C7989.23 424.346 7999.44 472.917 7999.44 525.033H8002.27C8002.27 472.537 7991.98 423.565 7971.39 378.135L7968.82 379.301ZM7999.44 525.033C7999.44 576.438 7989.23 624.3 7968.82 668.636L7971.39 669.818C7991.98 625.092 8002.27 576.825 8002.27 525.033H7999.44ZM7968.82 668.653C7949.1 713.009 7921.29 752.084 7885.38 785.885L7887.32 787.944C7923.5 753.889 7951.53 714.506 7971.4 669.801L7968.82 668.653ZM7885.38 785.885C7850.17 818.979 7808.97 845.04 7761.77 864.062L7762.83 866.684C7810.34 847.538 7851.84 821.292 7887.32 787.945L7885.38 785.885ZM7761.77 864.062C7714.59 883.074 7663.53 892.586 7608.56 892.586V895.414C7663.86 895.414 7715.29 885.842 7762.83 866.684L7761.77 864.062ZM7608.56 892.586H7307.45V895.414H7608.56V892.586ZM8224.69 894H8223.28V895.414H8224.69V894ZM8224.69 151.824V150.411H8223.28V151.824H8224.69ZM8809.95 151.824H8811.36V150.411H8809.95V151.824ZM8809.95 309.802V311.215H8811.36V309.802H8809.95ZM8407.06 309.802V308.388H8405.64V309.802H8407.06ZM8407.06 443.393H8405.64V444.807H8407.06V443.393ZM8673.18 443.393H8674.59V441.98H8673.18V443.393ZM8673.18 596.069V597.483H8674.59V596.069H8673.18ZM8407.06 596.069V594.656H8405.64V596.069H8407.06ZM8407.06 736.023H8405.64V737.436H8407.06V736.023ZM8814.19 736.023H8815.6V734.609H8814.19V736.023ZM8814.19 894V895.414H8815.6V894H8814.19ZM8226.11 894V151.824H8223.28V894H8226.11ZM8224.69 153.238H8809.95V150.411H8224.69V153.238ZM8808.54 151.824V309.802H8811.36V151.824H8808.54ZM8809.95 308.388H8407.06V311.215H8809.95V308.388ZM8405.64 309.802V443.393H8408.47V309.802H8405.64ZM8407.06 444.807H8673.18V441.98H8407.06V444.807ZM8671.76 443.393V596.069H8674.59V443.393H8671.76ZM8673.18 594.656H8407.06V597.483H8673.18V594.656ZM8405.64 596.069V736.023H8408.47V596.069H8405.64ZM8407.06 737.436H8814.19V734.609H8407.06V737.436ZM8812.78 736.023V894H8815.6V736.023H8812.78ZM8814.19 892.586H8224.69V895.414H8814.19V892.586Z" fill="#E5E7EB" mask="url(#path-8-outside-1_216_12)"/>
<mask id="path-10-outside-2_216_12" maskUnits="userSpaceOnUse" x="2138.6" y="1135" width="6634" height="456" fill="black">
<rect fill="white" x="2138.6" y="1135" width="6634" height="456"/>
<path d="M2140.8 1582V1143.8H2189V1339.74H2443.78V1143.8H2491.99V1582H2443.78V1382.93H2189V1582H2140.8ZM3444.66 1588.89C3412.94 1588.89 3383.31 1583.25 3355.77 1571.98C3328.64 1560.3 3304.64 1544.23 3283.78 1523.78C3263.33 1502.92 3247.26 1478.92 3235.58 1451.79C3224.31 1424.25 3218.67 1394.62 3218.67 1362.9C3218.67 1331.18 3224.31 1301.76 3235.58 1274.63C3247.26 1247.09 3263.33 1223.09 3283.78 1202.64C3304.64 1181.78 3328.64 1165.71 3355.77 1154.44C3383.31 1142.76 3412.94 1136.91 3444.66 1136.91C3475.96 1136.91 3505.17 1142.76 3532.3 1154.44C3559.84 1165.71 3583.84 1181.78 3604.29 1202.64C3625.16 1223.09 3641.22 1247.09 3652.49 1274.63C3664.18 1301.76 3670.02 1331.18 3670.02 1362.9C3670.02 1394.62 3664.18 1424.25 3652.49 1451.79C3641.22 1478.92 3625.16 1502.92 3604.29 1523.78C3583.84 1544.23 3559.84 1560.3 3532.3 1571.98C3505.17 1583.25 3475.96 1588.89 3444.66 1588.89ZM3444.66 1544.44C3469.7 1544.44 3492.86 1539.85 3514.15 1530.67C3535.43 1521.49 3554 1508.76 3569.86 1492.48C3586.14 1475.79 3598.66 1456.38 3607.42 1434.26C3616.6 1412.15 3621.19 1388.36 3621.19 1362.9C3621.19 1337.03 3616.6 1313.24 3607.42 1291.54C3598.66 1269.42 3586.14 1250.22 3569.86 1233.94C3554 1217.25 3535.43 1204.31 3514.15 1195.13C3492.86 1185.95 3469.7 1181.36 3444.66 1181.36C3419.62 1181.36 3396.25 1185.95 3374.55 1195.13C3353.26 1204.31 3334.48 1217.25 3318.21 1233.94C3302.35 1250.22 3289.83 1269.42 3280.65 1291.54C3271.88 1313.24 3267.5 1336.82 3267.5 1362.27C3267.5 1388.15 3271.88 1412.15 3280.65 1434.26C3289.83 1456.38 3302.35 1475.79 3318.21 1492.48C3334.48 1508.76 3353.26 1521.49 3374.55 1530.67C3396.25 1539.85 3419.62 1544.44 3444.66 1544.44ZM4538.65 1588.26C4504.01 1588.26 4470.84 1581.37 4439.12 1567.6C4407.4 1553.41 4379.44 1533.17 4355.24 1506.88L4387.16 1473.7C4409.7 1497.91 4433.69 1516.06 4459.15 1528.16C4485.03 1540.27 4512.15 1546.32 4540.53 1546.32C4563.48 1546.32 4583.73 1542.77 4601.25 1535.68C4619.2 1528.16 4633.18 1517.94 4643.2 1505C4653.21 1491.65 4658.22 1476.62 4658.22 1459.93C4658.22 1437.39 4650.29 1420.07 4634.43 1407.97C4618.99 1395.87 4593.32 1386.9 4557.43 1381.05L4494.21 1371.04C4452.06 1363.94 4420.97 1351.42 4400.93 1333.48C4380.9 1315.53 4370.89 1291.12 4370.89 1260.24C4370.89 1236.03 4377.35 1214.75 4390.29 1196.38C4403.23 1178.02 4421.17 1163.83 4444.13 1153.82C4467.5 1143.38 4494.42 1138.17 4524.88 1138.17C4555.76 1138.17 4586.02 1143.17 4615.65 1153.19C4645.7 1163.21 4673.03 1177.6 4697.66 1196.38L4670.11 1233.94C4622.12 1197.64 4573.08 1179.48 4523 1179.48C4502.14 1179.48 4483.77 1182.82 4467.92 1189.5C4452.06 1195.76 4439.75 1204.73 4430.98 1216.42C4422.22 1227.68 4417.84 1241.04 4417.84 1256.48C4417.84 1276.93 4424.72 1292.58 4438.49 1303.43C4452.27 1314.28 4475.01 1322.21 4506.73 1327.22L4569.33 1337.23C4617.32 1345.16 4652.17 1358.73 4673.87 1377.92C4695.57 1396.7 4706.42 1423.2 4706.42 1457.43C4706.42 1482.88 4699.33 1505.63 4685.14 1525.66C4670.95 1545.27 4651.12 1560.72 4625.67 1571.98C4600.63 1582.83 4571.62 1588.26 4538.65 1588.26ZM5534.59 1582V1186.99H5376.22V1143.8H5741.17V1186.99H5582.8V1582H5534.59ZM6451.18 1582V1143.8H6499.38V1582H6451.18ZM7247.1 1582V1143.8H7295.3L7558.85 1499.37V1143.8H7604.55V1582H7561.98L7292.8 1217.04V1582H7247.1ZM8557.7 1588.89C8525.98 1588.89 8496.35 1583.04 8468.81 1571.36C8441.68 1559.67 8417.69 1543.61 8396.82 1523.16C8376.37 1502.29 8360.3 1478.29 8348.62 1451.17C8336.93 1423.62 8331.09 1394.2 8331.09 1362.9C8331.09 1331.6 8336.72 1302.39 8347.99 1275.26C8359.68 1247.72 8375.74 1223.72 8396.19 1203.27C8417.06 1182.4 8441.06 1166.13 8468.18 1154.44C8495.73 1142.76 8525.36 1136.91 8557.07 1136.91C8590.88 1136.91 8622.8 1143.17 8652.85 1155.69C8682.9 1168.21 8708.57 1185.95 8729.85 1208.9L8697.3 1242.08C8680.61 1222.88 8659.74 1208.07 8634.7 1197.64C8610.08 1186.79 8584.2 1181.36 8557.07 1181.36C8532.03 1181.36 8508.66 1185.95 8486.96 1195.13C8465.68 1204.31 8446.9 1217.25 8430.62 1233.94C8414.76 1250.22 8402.24 1269.42 8393.06 1291.54C8384.3 1313.24 8379.92 1337.03 8379.92 1362.9C8379.92 1388.36 8384.3 1412.15 8393.06 1434.26C8402.24 1456.38 8414.76 1475.79 8430.62 1492.48C8446.9 1508.76 8465.68 1521.49 8486.96 1530.67C8508.66 1539.85 8532.03 1544.44 8557.07 1544.44C8586.71 1544.44 8613.41 1537.97 8637.2 1525.03C8661.41 1512.1 8680.81 1494.36 8695.42 1471.82C8710.44 1449.29 8719.21 1423.83 8721.71 1395.45H8564.59V1352.88H8770.54V1372.29C8770.54 1402.76 8765.12 1431.13 8754.26 1457.43C8743.41 1483.72 8728.39 1506.67 8709.19 1526.29C8690 1545.9 8667.46 1561.34 8641.58 1572.61C8615.71 1583.46 8587.75 1588.89 8557.7 1588.89Z"/>
</mask>
<path d="M2140.8 1582V1143.8H2189V1339.74H2443.78V1143.8H2491.99V1582H2443.78V1382.93H2189V1582H2140.8ZM3444.66 1588.89C3412.94 1588.89 3383.31 1583.25 3355.77 1571.98C3328.64 1560.3 3304.64 1544.23 3283.78 1523.78C3263.33 1502.92 3247.26 1478.92 3235.58 1451.79C3224.31 1424.25 3218.67 1394.62 3218.67 1362.9C3218.67 1331.18 3224.31 1301.76 3235.58 1274.63C3247.26 1247.09 3263.33 1223.09 3283.78 1202.64C3304.64 1181.78 3328.64 1165.71 3355.77 1154.44C3383.31 1142.76 3412.94 1136.91 3444.66 1136.91C3475.96 1136.91 3505.17 1142.76 3532.3 1154.44C3559.84 1165.71 3583.84 1181.78 3604.29 1202.64C3625.16 1223.09 3641.22 1247.09 3652.49 1274.63C3664.18 1301.76 3670.02 1331.18 3670.02 1362.9C3670.02 1394.62 3664.18 1424.25 3652.49 1451.79C3641.22 1478.92 3625.16 1502.92 3604.29 1523.78C3583.84 1544.23 3559.84 1560.3 3532.3 1571.98C3505.17 1583.25 3475.96 1588.89 3444.66 1588.89ZM3444.66 1544.44C3469.7 1544.44 3492.86 1539.85 3514.15 1530.67C3535.43 1521.49 3554 1508.76 3569.86 1492.48C3586.14 1475.79 3598.66 1456.38 3607.42 1434.26C3616.6 1412.15 3621.19 1388.36 3621.19 1362.9C3621.19 1337.03 3616.6 1313.24 3607.42 1291.54C3598.66 1269.42 3586.14 1250.22 3569.86 1233.94C3554 1217.25 3535.43 1204.31 3514.15 1195.13C3492.86 1185.95 3469.7 1181.36 3444.66 1181.36C3419.62 1181.36 3396.25 1185.95 3374.55 1195.13C3353.26 1204.31 3334.48 1217.25 3318.21 1233.94C3302.35 1250.22 3289.83 1269.42 3280.65 1291.54C3271.88 1313.24 3267.5 1336.82 3267.5 1362.27C3267.5 1388.15 3271.88 1412.15 3280.65 1434.26C3289.83 1456.38 3302.35 1475.79 3318.21 1492.48C3334.48 1508.76 3353.26 1521.49 3374.55 1530.67C3396.25 1539.85 3419.62 1544.44 3444.66 1544.44ZM4538.65 1588.26C4504.01 1588.26 4470.84 1581.37 4439.12 1567.6C4407.4 1553.41 4379.44 1533.17 4355.24 1506.88L4387.16 1473.7C4409.7 1497.91 4433.69 1516.06 4459.15 1528.16C4485.03 1540.27 4512.15 1546.32 4540.53 1546.32C4563.48 1546.32 4583.73 1542.77 4601.25 1535.68C4619.2 1528.16 4633.18 1517.94 4643.2 1505C4653.21 1491.65 4658.22 1476.62 4658.22 1459.93C4658.22 1437.39 4650.29 1420.07 4634.43 1407.97C4618.99 1395.87 4593.32 1386.9 4557.43 1381.05L4494.21 1371.04C4452.06 1363.94 4420.97 1351.42 4400.93 1333.48C4380.9 1315.53 4370.89 1291.12 4370.89 1260.24C4370.89 1236.03 4377.35 1214.75 4390.29 1196.38C4403.23 1178.02 4421.17 1163.83 4444.13 1153.82C4467.5 1143.38 4494.42 1138.17 4524.88 1138.17C4555.76 1138.17 4586.02 1143.17 4615.65 1153.19C4645.7 1163.21 4673.03 1177.6 4697.66 1196.38L4670.11 1233.94C4622.12 1197.64 4573.08 1179.48 4523 1179.48C4502.14 1179.48 4483.77 1182.82 4467.92 1189.5C4452.06 1195.76 4439.75 1204.73 4430.98 1216.42C4422.22 1227.68 4417.84 1241.04 4417.84 1256.48C4417.84 1276.93 4424.72 1292.58 4438.49 1303.43C4452.27 1314.28 4475.01 1322.21 4506.73 1327.22L4569.33 1337.23C4617.32 1345.16 4652.17 1358.73 4673.87 1377.92C4695.57 1396.7 4706.42 1423.2 4706.42 1457.43C4706.42 1482.88 4699.33 1505.63 4685.14 1525.66C4670.95 1545.27 4651.12 1560.72 4625.67 1571.98C4600.63 1582.83 4571.62 1588.26 4538.65 1588.26ZM5534.59 1582V1186.99H5376.22V1143.8H5741.17V1186.99H5582.8V1582H5534.59ZM6451.18 1582V1143.8H6499.38V1582H6451.18ZM7247.1 1582V1143.8H7295.3L7558.85 1499.37V1143.8H7604.55V1582H7561.98L7292.8 1217.04V1582H7247.1ZM8557.7 1588.89C8525.98 1588.89 8496.35 1583.04 8468.81 1571.36C8441.68 1559.67 8417.69 1543.61 8396.82 1523.16C8376.37 1502.29 8360.3 1478.29 8348.62 1451.17C8336.93 1423.62 8331.09 1394.2 8331.09 1362.9C8331.09 1331.6 8336.72 1302.39 8347.99 1275.26C8359.68 1247.72 8375.74 1223.72 8396.19 1203.27C8417.06 1182.4 8441.06 1166.13 8468.18 1154.44C8495.73 1142.76 8525.36 1136.91 8557.07 1136.91C8590.88 1136.91 8622.8 1143.17 8652.85 1155.69C8682.9 1168.21 8708.57 1185.95 8729.85 1208.9L8697.3 1242.08C8680.61 1222.88 8659.74 1208.07 8634.7 1197.64C8610.08 1186.79 8584.2 1181.36 8557.07 1181.36C8532.03 1181.36 8508.66 1185.95 8486.96 1195.13C8465.68 1204.31 8446.9 1217.25 8430.62 1233.94C8414.76 1250.22 8402.24 1269.42 8393.06 1291.54C8384.3 1313.24 8379.92 1337.03 8379.92 1362.9C8379.92 1388.36 8384.3 1412.15 8393.06 1434.26C8402.24 1456.38 8414.76 1475.79 8430.62 1492.48C8446.9 1508.76 8465.68 1521.49 8486.96 1530.67C8508.66 1539.85 8532.03 1544.44 8557.07 1544.44C8586.71 1544.44 8613.41 1537.97 8637.2 1525.03C8661.41 1512.1 8680.81 1494.36 8695.42 1471.82C8710.44 1449.29 8719.21 1423.83 8721.71 1395.45H8564.59V1352.88H8770.54V1372.29C8770.54 1402.76 8765.12 1431.13 8754.26 1457.43C8743.41 1483.72 8728.39 1506.67 8709.19 1526.29C8690 1545.9 8667.46 1561.34 8641.58 1572.61C8615.71 1583.46 8587.75 1588.89 8557.7 1588.89Z" fill="#E5E7EB"/>
<path d="M2140.8 1582H2139.39V1583.41H2140.8V1582ZM2140.8 1143.8V1142.39H2139.39V1143.8H2140.8ZM2189 1143.8H2190.42V1142.39H2189V1143.8ZM2189 1339.74H2187.59V1341.15H2189V1339.74ZM2443.78 1339.74V1341.15H2445.2V1339.74H2443.78ZM2443.78 1143.8V1142.39H2442.37V1143.8H2443.78ZM2491.99 1143.8H2493.4V1142.39H2491.99V1143.8ZM2491.99 1582V1583.41H2493.4V1582H2491.99ZM2443.78 1582H2442.37V1583.41H2443.78V1582ZM2443.78 1382.93H2445.2V1381.52H2443.78V1382.93ZM2189 1382.93V1381.52H2187.59V1382.93H2189ZM2189 1582V1583.41H2190.42V1582H2189ZM2142.21 1582V1143.8H2139.39V1582H2142.21ZM2140.8 1145.21H2189V1142.39H2140.8V1145.21ZM2187.59 1143.8V1339.74H2190.42V1143.8H2187.59ZM2189 1341.15H2443.78V1338.32H2189V1341.15ZM2445.2 1339.74V1143.8H2442.37V1339.74H2445.2ZM2443.78 1145.21H2491.99V1142.39H2443.78V1145.21ZM2490.57 1143.8V1582H2493.4V1143.8H2490.57ZM2491.99 1580.59H2443.78V1583.41H2491.99V1580.59ZM2445.2 1582V1382.93H2442.37V1582H2445.2ZM2443.78 1381.52H2189V1384.35H2443.78V1381.52ZM2187.59 1382.93V1582H2190.42V1382.93H2187.59ZM2189 1580.59H2140.8V1583.41H2189V1580.59Z" fill="#E5E7EB" mask="url(#path-10-outside-2_216_12)"/>
<defs>
<clipPath id="clip0_216_12">
<rect x="0.398438" width="1742.2" height="1734" rx="866.999" fill="white"/>
</clipPath>
</defs>
</svg>

